<?xml version="1.0" encoding="utf-8" standalone="no"?>
<!DOCTYPE svg PUBLIC "-//W3C//DTD SVG 1.1//EN"
  "http://www.w3.org/Graphics/SVG/1.1/DTD/svg11.dtd">
<svg xmlns:xlink="http://www.w3.org/1999/xlink" width="928.64875pt" height="341.48425pt" viewBox="0 0 928.64875 341.48425" xmlns="http://www.w3.org/2000/svg" version="1.1">
 <metadata>
  <rdf:RDF xmlns:dc="http://purl.org/dc/elements/1.1/" xmlns:cc="http://creativecommons.org/ns#" xmlns:rdf="http://www.w3.org/1999/02/22-rdf-syntax-ns#">
   <cc:Work>
    <dc:type rdf:resource="http://purl.org/dc/dcmitype/StillImage"/>
    <dc:date>2026-06-23T10:19:58.056302</dc:date>
    <dc:format>image/svg+xml</dc:format>
    <dc:creator>
     <cc:Agent>
      <dc:title>Matplotlib v3.10.9, https://matplotlib.org/</dc:title>
     </cc:Agent>
    </dc:creator>
   </cc:Work>
  </rdf:RDF>
 </metadata>
 <defs>
  <style type="text/css">*{stroke-linejoin: round; stroke-linecap: butt}</style>
 </defs>
 <g id="figure_1">
  <g id="patch_1">
   <path d="M 0 341.48425 
L 928.64875 341.48425 
L 928.64875 -0 
L 0 -0 
z
" style="fill: #ffffff"/>
  </g>
  <g id="axes_1">
   <g id="patch_2">
    <path d="M 62.86875 303.928 
L 461.95375 303.928 
L 461.95375 50.928 
L 62.86875 50.928 
z
" style="fill: #ffffff"/>
   </g>
   <g id="matplotlib.axis_1">
    <g id="xtick_1">
     <g id="line2d_1">
      <path d="M 68.498476 303.928 
L 68.498476 50.928 
" clip-path="url(#p7f8be4b3b8)" style="fill: none; stroke: #b0b0b0; stroke-opacity: 0.28; stroke-width: 0.8; stroke-linecap: square"/>
     </g>
     <g id="line2d_2">
      <defs>
       <path id="me8e486e46f" d="M 0 0 
L 0 3.5 
" style="stroke: #000000; stroke-width: 0.8"/>
      </defs>
      <g>
       <use xlink:href="#me8e486e46f" x="68.498476" y="303.928" style="stroke: #000000; stroke-width: 0.8"/>
      </g>
     </g>
     <g id="text_1">
      <!-- 0 -->
      <g transform="translate(65.317226 318.526437) scale(0.1 -0.1)">
       <defs>
        <path id="DejaVuSans-30" d="M 2034 4250 
Q 1547 4250 1301 3770 
Q 1056 3291 1056 2328 
Q 1056 1369 1301 889 
Q 1547 409 2034 409 
Q 2525 409 2770 889 
Q 3016 1369 3016 2328 
Q 3016 3291 2770 3770 
Q 2525 4250 2034 4250 
z
M 2034 4750 
Q 2819 4750 3233 4129 
Q 3647 3509 3647 2328 
Q 3647 1150 3233 529 
Q 2819 -91 2034 -91 
Q 1250 -91 836 529 
Q 422 1150 422 2328 
Q 422 3509 836 4129 
Q 1250 4750 2034 4750 
z
" transform="scale(0.015625)"/>
       </defs>
       <use xlink:href="#DejaVuSans-30"/>
      </g>
     </g>
    </g>
    <g id="xtick_2">
     <g id="line2d_3">
      <path d="M 131.050984 303.928 
L 131.050984 50.928 
" clip-path="url(#p7f8be4b3b8)" style="fill: none; stroke: #b0b0b0; stroke-opacity: 0.28; stroke-width: 0.8; stroke-linecap: square"/>
     </g>
     <g id="line2d_4">
      <g>
       <use xlink:href="#me8e486e46f" x="131.050984" y="303.928" style="stroke: #000000; stroke-width: 0.8"/>
      </g>
     </g>
     <g id="text_2">
      <!-- 5 -->
      <g transform="translate(127.869734 318.526437) scale(0.1 -0.1)">
       <defs>
        <path id="DejaVuSans-35" d="M 691 4666 
L 3169 4666 
L 3169 4134 
L 1269 4134 
L 1269 2991 
Q 1406 3038 1543 3061 
Q 1681 3084 1819 3084 
Q 2600 3084 3056 2656 
Q 3513 2228 3513 1497 
Q 3513 744 3044 326 
Q 2575 -91 1722 -91 
Q 1428 -91 1123 -41 
Q 819 9 494 109 
L 494 744 
Q 775 591 1075 516 
Q 1375 441 1709 441 
Q 2250 441 2565 725 
Q 2881 1009 2881 1497 
Q 2881 1984 2565 2268 
Q 2250 2553 1709 2553 
Q 1456 2553 1204 2497 
Q 953 2441 691 2322 
L 691 4666 
z
" transform="scale(0.015625)"/>
       </defs>
       <use xlink:href="#DejaVuSans-35"/>
      </g>
     </g>
    </g>
    <g id="xtick_3">
     <g id="line2d_5">
      <path d="M 193.603491 303.928 
L 193.603491 50.928 
" clip-path="url(#p7f8be4b3b8)" style="fill: none; stroke: #b0b0b0; stroke-opacity: 0.28; stroke-width: 0.8; stroke-linecap: square"/>
     </g>
     <g id="line2d_6">
      <g>
       <use xlink:href="#me8e486e46f" x="193.603491" y="303.928" style="stroke: #000000; stroke-width: 0.8"/>
      </g>
     </g>
     <g id="text_3">
      <!-- 10 -->
      <g transform="translate(187.240991 318.526437) scale(0.1 -0.1)">
       <defs>
        <path id="DejaVuSans-31" d="M 794 531 
L 1825 531 
L 1825 4091 
L 703 3866 
L 703 4441 
L 1819 4666 
L 2450 4666 
L 2450 531 
L 3481 531 
L 3481 0 
L 794 0 
L 794 531 
z
" transform="scale(0.015625)"/>
       </defs>
       <use xlink:href="#DejaVuSans-31"/>
       <use xlink:href="#DejaVuSans-30" transform="translate(63.623047 0)"/>
      </g>
     </g>
    </g>
    <g id="xtick_4">
     <g id="line2d_7">
      <path d="M 256.155999 303.928 
L 256.155999 50.928 
" clip-path="url(#p7f8be4b3b8)" style="fill: none; stroke: #b0b0b0; stroke-opacity: 0.28; stroke-width: 0.8; stroke-linecap: square"/>
     </g>
     <g id="line2d_8">
      <g>
       <use xlink:href="#me8e486e46f" x="256.155999" y="303.928" style="stroke: #000000; stroke-width: 0.8"/>
      </g>
     </g>
     <g id="text_4">
      <!-- 15 -->
      <g transform="translate(249.793499 318.526437) scale(0.1 -0.1)">
       <use xlink:href="#DejaVuSans-31"/>
       <use xlink:href="#DejaVuSans-35" transform="translate(63.623047 0)"/>
      </g>
     </g>
    </g>
    <g id="xtick_5">
     <g id="line2d_9">
      <path d="M 318.708507 303.928 
L 318.708507 50.928 
" clip-path="url(#p7f8be4b3b8)" style="fill: none; stroke: #b0b0b0; stroke-opacity: 0.28; stroke-width: 0.8; stroke-linecap: square"/>
     </g>
     <g id="line2d_10">
      <g>
       <use xlink:href="#me8e486e46f" x="318.708507" y="303.928" style="stroke: #000000; stroke-width: 0.8"/>
      </g>
     </g>
     <g id="text_5">
      <!-- 20 -->
      <g transform="translate(312.346007 318.526437) scale(0.1 -0.1)">
       <defs>
        <path id="DejaVuSans-32" d="M 1228 531 
L 3431 531 
L 3431 0 
L 469 0 
L 469 531 
Q 828 903 1448 1529 
Q 2069 2156 2228 2338 
Q 2531 2678 2651 2914 
Q 2772 3150 2772 3378 
Q 2772 3750 2511 3984 
Q 2250 4219 1831 4219 
Q 1534 4219 1204 4116 
Q 875 4013 500 3803 
L 500 4441 
Q 881 4594 1212 4672 
Q 1544 4750 1819 4750 
Q 2544 4750 2975 4387 
Q 3406 4025 3406 3419 
Q 3406 3131 3298 2873 
Q 3191 2616 2906 2266 
Q 2828 2175 2409 1742 
Q 1991 1309 1228 531 
z
" transform="scale(0.015625)"/>
       </defs>
       <use xlink:href="#DejaVuSans-32"/>
       <use xlink:href="#DejaVuSans-30" transform="translate(63.623047 0)"/>
      </g>
     </g>
    </g>
    <g id="xtick_6">
     <g id="line2d_11">
      <path d="M 381.261015 303.928 
L 381.261015 50.928 
" clip-path="url(#p7f8be4b3b8)" style="fill: none; stroke: #b0b0b0; stroke-opacity: 0.28; stroke-width: 0.8; stroke-linecap: square"/>
     </g>
     <g id="line2d_12">
      <g>
       <use xlink:href="#me8e486e46f" x="381.261015" y="303.928" style="stroke: #000000; stroke-width: 0.8"/>
      </g>
     </g>
     <g id="text_6">
      <!-- 25 -->
      <g transform="translate(374.898515 318.526437) scale(0.1 -0.1)">
       <use xlink:href="#DejaVuSans-32"/>
       <use xlink:href="#DejaVuSans-35" transform="translate(63.623047 0)"/>
      </g>
     </g>
    </g>
    <g id="xtick_7">
     <g id="line2d_13">
      <path d="M 443.813523 303.928 
L 443.813523 50.928 
" clip-path="url(#p7f8be4b3b8)" style="fill: none; stroke: #b0b0b0; stroke-opacity: 0.28; stroke-width: 0.8; stroke-linecap: square"/>
     </g>
     <g id="line2d_14">
      <g>
       <use xlink:href="#me8e486e46f" x="443.813523" y="303.928" style="stroke: #000000; stroke-width: 0.8"/>
      </g>
     </g>
     <g id="text_7">
      <!-- 30 -->
      <g transform="translate(437.451023 318.526437) scale(0.1 -0.1)">
       <defs>
        <path id="DejaVuSans-33" d="M 2597 2516 
Q 3050 2419 3304 2112 
Q 3559 1806 3559 1356 
Q 3559 666 3084 287 
Q 2609 -91 1734 -91 
Q 1441 -91 1130 -33 
Q 819 25 488 141 
L 488 750 
Q 750 597 1062 519 
Q 1375 441 1716 441 
Q 2309 441 2620 675 
Q 2931 909 2931 1356 
Q 2931 1769 2642 2001 
Q 2353 2234 1838 2234 
L 1294 2234 
L 1294 2753 
L 1863 2753 
Q 2328 2753 2575 2939 
Q 2822 3125 2822 3475 
Q 2822 3834 2567 4026 
Q 2313 4219 1838 4219 
Q 1578 4219 1281 4162 
Q 984 4106 628 3988 
L 628 4550 
Q 988 4650 1302 4700 
Q 1616 4750 1894 4750 
Q 2613 4750 3031 4423 
Q 3450 4097 3450 3541 
Q 3450 3153 3228 2886 
Q 3006 2619 2597 2516 
z
" transform="scale(0.015625)"/>
       </defs>
       <use xlink:href="#DejaVuSans-33"/>
       <use xlink:href="#DejaVuSans-30" transform="translate(63.623047 0)"/>
      </g>
     </g>
    </g>
    <g id="text_8">
     <!-- Epoch -->
     <g transform="translate(247.100313 332.204562) scale(0.1 -0.1)">
      <defs>
       <path id="DejaVuSans-45" d="M 628 4666 
L 3578 4666 
L 3578 4134 
L 1259 4134 
L 1259 2753 
L 3481 2753 
L 3481 2222 
L 1259 2222 
L 1259 531 
L 3634 531 
L 3634 0 
L 628 0 
L 628 4666 
z
" transform="scale(0.015625)"/>
       <path id="DejaVuSans-70" d="M 1159 525 
L 1159 -1331 
L 581 -1331 
L 581 3500 
L 1159 3500 
L 1159 2969 
Q 1341 3281 1617 3432 
Q 1894 3584 2278 3584 
Q 2916 3584 3314 3078 
Q 3713 2572 3713 1747 
Q 3713 922 3314 415 
Q 2916 -91 2278 -91 
Q 1894 -91 1617 61 
Q 1341 213 1159 525 
z
M 3116 1747 
Q 3116 2381 2855 2742 
Q 2594 3103 2138 3103 
Q 1681 3103 1420 2742 
Q 1159 2381 1159 1747 
Q 1159 1113 1420 752 
Q 1681 391 2138 391 
Q 2594 391 2855 752 
Q 3116 1113 3116 1747 
z
" transform="scale(0.015625)"/>
       <path id="DejaVuSans-6f" d="M 1959 3097 
Q 1497 3097 1228 2736 
Q 959 2375 959 1747 
Q 959 1119 1226 758 
Q 1494 397 1959 397 
Q 2419 397 2687 759 
Q 2956 1122 2956 1747 
Q 2956 2369 2687 2733 
Q 2419 3097 1959 3097 
z
M 1959 3584 
Q 2709 3584 3137 3096 
Q 3566 2609 3566 1747 
Q 3566 888 3137 398 
Q 2709 -91 1959 -91 
Q 1206 -91 779 398 
Q 353 888 353 1747 
Q 353 2609 779 3096 
Q 1206 3584 1959 3584 
z
" transform="scale(0.015625)"/>
       <path id="DejaVuSans-63" d="M 3122 3366 
L 3122 2828 
Q 2878 2963 2633 3030 
Q 2388 3097 2138 3097 
Q 1578 3097 1268 2742 
Q 959 2388 959 1747 
Q 959 1106 1268 751 
Q 1578 397 2138 397 
Q 2388 397 2633 464 
Q 2878 531 3122 666 
L 3122 134 
Q 2881 22 2623 -34 
Q 2366 -91 2075 -91 
Q 1284 -91 818 406 
Q 353 903 353 1747 
Q 353 2603 823 3093 
Q 1294 3584 2113 3584 
Q 2378 3584 2631 3529 
Q 2884 3475 3122 3366 
z
" transform="scale(0.015625)"/>
       <path id="DejaVuSans-68" d="M 3513 2113 
L 3513 0 
L 2938 0 
L 2938 2094 
Q 2938 2591 2744 2837 
Q 2550 3084 2163 3084 
Q 1697 3084 1428 2787 
Q 1159 2491 1159 1978 
L 1159 0 
L 581 0 
L 581 4863 
L 1159 4863 
L 1159 2956 
Q 1366 3272 1645 3428 
Q 1925 3584 2291 3584 
Q 2894 3584 3203 3211 
Q 3513 2838 3513 2113 
z
" transform="scale(0.015625)"/>
      </defs>
      <use xlink:href="#DejaVuSans-45"/>
      <use xlink:href="#DejaVuSans-70" transform="translate(63.183594 0)"/>
      <use xlink:href="#DejaVuSans-6f" transform="translate(126.660156 0)"/>
      <use xlink:href="#DejaVuSans-63" transform="translate(187.841797 0)"/>
      <use xlink:href="#DejaVuSans-68" transform="translate(242.822266 0)"/>
     </g>
    </g>
   </g>
   <g id="matplotlib.axis_2">
    <g id="ytick_1">
     <g id="line2d_15">
      <path d="M 62.86875 270.971109 
L 461.95375 270.971109 
" clip-path="url(#p7f8be4b3b8)" style="fill: none; stroke: #b0b0b0; stroke-opacity: 0.28; stroke-width: 0.8; stroke-linecap: square"/>
     </g>
     <g id="line2d_16">
      <defs>
       <path id="m8551cf8610" d="M 0 0 
L -3.5 0 
" style="stroke: #000000; stroke-width: 0.8"/>
      </defs>
      <g>
       <use xlink:href="#m8551cf8610" x="62.86875" y="270.971109" style="stroke: #000000; stroke-width: 0.8"/>
      </g>
     </g>
     <g id="text_9">
      <!-- 0.0050 -->
      <g transform="translate(20.878125 274.770328) scale(0.1 -0.1)">
       <defs>
        <path id="DejaVuSans-2e" d="M 684 794 
L 1344 794 
L 1344 0 
L 684 0 
L 684 794 
z
" transform="scale(0.015625)"/>
       </defs>
       <use xlink:href="#DejaVuSans-30"/>
       <use xlink:href="#DejaVuSans-2e" transform="translate(63.623047 0)"/>
       <use xlink:href="#DejaVuSans-30" transform="translate(95.410156 0)"/>
       <use xlink:href="#DejaVuSans-30" transform="translate(159.033203 0)"/>
       <use xlink:href="#DejaVuSans-35" transform="translate(222.65625 0)"/>
       <use xlink:href="#DejaVuSans-30" transform="translate(286.279297 0)"/>
      </g>
     </g>
    </g>
    <g id="ytick_2">
     <g id="line2d_17">
      <path d="M 62.86875 237.203951 
L 461.95375 237.203951 
" clip-path="url(#p7f8be4b3b8)" style="fill: none; stroke: #b0b0b0; stroke-opacity: 0.28; stroke-width: 0.8; stroke-linecap: square"/>
     </g>
     <g id="line2d_18">
      <g>
       <use xlink:href="#m8551cf8610" x="62.86875" y="237.203951" style="stroke: #000000; stroke-width: 0.8"/>
      </g>
     </g>
     <g id="text_10">
      <!-- 0.0075 -->
      <g transform="translate(20.878125 241.00317) scale(0.1 -0.1)">
       <defs>
        <path id="DejaVuSans-37" d="M 525 4666 
L 3525 4666 
L 3525 4397 
L 1831 0 
L 1172 0 
L 2766 4134 
L 525 4134 
L 525 4666 
z
" transform="scale(0.015625)"/>
       </defs>
       <use xlink:href="#DejaVuSans-30"/>
       <use xlink:href="#DejaVuSans-2e" transform="translate(63.623047 0)"/>
       <use xlink:href="#DejaVuSans-30" transform="translate(95.410156 0)"/>
       <use xlink:href="#DejaVuSans-30" transform="translate(159.033203 0)"/>
       <use xlink:href="#DejaVuSans-37" transform="translate(222.65625 0)"/>
       <use xlink:href="#DejaVuSans-35" transform="translate(286.279297 0)"/>
      </g>
     </g>
    </g>
    <g id="ytick_3">
     <g id="line2d_19">
      <path d="M 62.86875 203.436794 
L 461.95375 203.436794 
" clip-path="url(#p7f8be4b3b8)" style="fill: none; stroke: #b0b0b0; stroke-opacity: 0.28; stroke-width: 0.8; stroke-linecap: square"/>
     </g>
     <g id="line2d_20">
      <g>
       <use xlink:href="#m8551cf8610" x="62.86875" y="203.436794" style="stroke: #000000; stroke-width: 0.8"/>
      </g>
     </g>
     <g id="text_11">
      <!-- 0.0100 -->
      <g transform="translate(20.878125 207.236012) scale(0.1 -0.1)">
       <use xlink:href="#DejaVuSans-30"/>
       <use xlink:href="#DejaVuSans-2e" transform="translate(63.623047 0)"/>
       <use xlink:href="#DejaVuSans-30" transform="translate(95.410156 0)"/>
       <use xlink:href="#DejaVuSans-31" transform="translate(159.033203 0)"/>
       <use xlink:href="#DejaVuSans-30" transform="translate(222.65625 0)"/>
       <use xlink:href="#DejaVuSans-30" transform="translate(286.279297 0)"/>
      </g>
     </g>
    </g>
    <g id="ytick_4">
     <g id="line2d_21">
      <path d="M 62.86875 169.669636 
L 461.95375 169.669636 
" clip-path="url(#p7f8be4b3b8)" style="fill: none; stroke: #b0b0b0; stroke-opacity: 0.28; stroke-width: 0.8; stroke-linecap: square"/>
     </g>
     <g id="line2d_22">
      <g>
       <use xlink:href="#m8551cf8610" x="62.86875" y="169.669636" style="stroke: #000000; stroke-width: 0.8"/>
      </g>
     </g>
     <g id="text_12">
      <!-- 0.0125 -->
      <g transform="translate(20.878125 173.468855) scale(0.1 -0.1)">
       <use xlink:href="#DejaVuSans-30"/>
       <use xlink:href="#DejaVuSans-2e" transform="translate(63.623047 0)"/>
       <use xlink:href="#DejaVuSans-30" transform="translate(95.410156 0)"/>
       <use xlink:href="#DejaVuSans-31" transform="translate(159.033203 0)"/>
       <use xlink:href="#DejaVuSans-32" transform="translate(222.65625 0)"/>
       <use xlink:href="#DejaVuSans-35" transform="translate(286.279297 0)"/>
      </g>
     </g>
    </g>
    <g id="ytick_5">
     <g id="line2d_23">
      <path d="M 62.86875 135.902478 
L 461.95375 135.902478 
" clip-path="url(#p7f8be4b3b8)" style="fill: none; stroke: #b0b0b0; stroke-opacity: 0.28; stroke-width: 0.8; stroke-linecap: square"/>
     </g>
     <g id="line2d_24">
      <g>
       <use xlink:href="#m8551cf8610" x="62.86875" y="135.902478" style="stroke: #000000; stroke-width: 0.8"/>
      </g>
     </g>
     <g id="text_13">
      <!-- 0.0150 -->
      <g transform="translate(20.878125 139.701697) scale(0.1 -0.1)">
       <use xlink:href="#DejaVuSans-30"/>
       <use xlink:href="#DejaVuSans-2e" transform="translate(63.623047 0)"/>
       <use xlink:href="#DejaVuSans-30" transform="translate(95.410156 0)"/>
       <use xlink:href="#DejaVuSans-31" transform="translate(159.033203 0)"/>
       <use xlink:href="#DejaVuSans-35" transform="translate(222.65625 0)"/>
       <use xlink:href="#DejaVuSans-30" transform="translate(286.279297 0)"/>
      </g>
     </g>
    </g>
    <g id="ytick_6">
     <g id="line2d_25">
      <path d="M 62.86875 102.13532 
L 461.95375 102.13532 
" clip-path="url(#p7f8be4b3b8)" style="fill: none; stroke: #b0b0b0; stroke-opacity: 0.28; stroke-width: 0.8; stroke-linecap: square"/>
     </g>
     <g id="line2d_26">
      <g>
       <use xlink:href="#m8551cf8610" x="62.86875" y="102.13532" style="stroke: #000000; stroke-width: 0.8"/>
      </g>
     </g>
     <g id="text_14">
      <!-- 0.0175 -->
      <g transform="translate(20.878125 105.934539) scale(0.1 -0.1)">
       <use xlink:href="#DejaVuSans-30"/>
       <use xlink:href="#DejaVuSans-2e" transform="translate(63.623047 0)"/>
       <use xlink:href="#DejaVuSans-30" transform="translate(95.410156 0)"/>
       <use xlink:href="#DejaVuSans-31" transform="translate(159.033203 0)"/>
       <use xlink:href="#DejaVuSans-37" transform="translate(222.65625 0)"/>
       <use xlink:href="#DejaVuSans-35" transform="translate(286.279297 0)"/>
      </g>
     </g>
    </g>
    <g id="ytick_7">
     <g id="line2d_27">
      <path d="M 62.86875 68.368162 
L 461.95375 68.368162 
" clip-path="url(#p7f8be4b3b8)" style="fill: none; stroke: #b0b0b0; stroke-opacity: 0.28; stroke-width: 0.8; stroke-linecap: square"/>
     </g>
     <g id="line2d_28">
      <g>
       <use xlink:href="#m8551cf8610" x="62.86875" y="68.368162" style="stroke: #000000; stroke-width: 0.8"/>
      </g>
     </g>
     <g id="text_15">
      <!-- 0.0200 -->
      <g transform="translate(20.878125 72.167381) scale(0.1 -0.1)">
       <use xlink:href="#DejaVuSans-30"/>
       <use xlink:href="#DejaVuSans-2e" transform="translate(63.623047 0)"/>
       <use xlink:href="#DejaVuSans-30" transform="translate(95.410156 0)"/>
       <use xlink:href="#DejaVuSans-32" transform="translate(159.033203 0)"/>
       <use xlink:href="#DejaVuSans-30" transform="translate(222.65625 0)"/>
       <use xlink:href="#DejaVuSans-30" transform="translate(286.279297 0)"/>
      </g>
     </g>
    </g>
    <g id="text_16">
     <!-- SmoothL1 loss -->
     <g transform="translate(14.798438 213.93425) rotate(-90) scale(0.1 -0.1)">
      <defs>
       <path id="DejaVuSans-53" d="M 3425 4513 
L 3425 3897 
Q 3066 4069 2747 4153 
Q 2428 4238 2131 4238 
Q 1616 4238 1336 4038 
Q 1056 3838 1056 3469 
Q 1056 3159 1242 3001 
Q 1428 2844 1947 2747 
L 2328 2669 
Q 3034 2534 3370 2195 
Q 3706 1856 3706 1288 
Q 3706 609 3251 259 
Q 2797 -91 1919 -91 
Q 1588 -91 1214 -16 
Q 841 59 441 206 
L 441 856 
Q 825 641 1194 531 
Q 1563 422 1919 422 
Q 2459 422 2753 634 
Q 3047 847 3047 1241 
Q 3047 1584 2836 1778 
Q 2625 1972 2144 2069 
L 1759 2144 
Q 1053 2284 737 2584 
Q 422 2884 422 3419 
Q 422 4038 858 4394 
Q 1294 4750 2059 4750 
Q 2388 4750 2728 4690 
Q 3069 4631 3425 4513 
z
" transform="scale(0.015625)"/>
       <path id="DejaVuSans-6d" d="M 3328 2828 
Q 3544 3216 3844 3400 
Q 4144 3584 4550 3584 
Q 5097 3584 5394 3201 
Q 5691 2819 5691 2113 
L 5691 0 
L 5113 0 
L 5113 2094 
Q 5113 2597 4934 2840 
Q 4756 3084 4391 3084 
Q 3944 3084 3684 2787 
Q 3425 2491 3425 1978 
L 3425 0 
L 2847 0 
L 2847 2094 
Q 2847 2600 2669 2842 
Q 2491 3084 2119 3084 
Q 1678 3084 1418 2786 
Q 1159 2488 1159 1978 
L 1159 0 
L 581 0 
L 581 3500 
L 1159 3500 
L 1159 2956 
Q 1356 3278 1631 3431 
Q 1906 3584 2284 3584 
Q 2666 3584 2933 3390 
Q 3200 3197 3328 2828 
z
" transform="scale(0.015625)"/>
       <path id="DejaVuSans-74" d="M 1172 4494 
L 1172 3500 
L 2356 3500 
L 2356 3053 
L 1172 3053 
L 1172 1153 
Q 1172 725 1289 603 
Q 1406 481 1766 481 
L 2356 481 
L 2356 0 
L 1766 0 
Q 1100 0 847 248 
Q 594 497 594 1153 
L 594 3053 
L 172 3053 
L 172 3500 
L 594 3500 
L 594 4494 
L 1172 4494 
z
" transform="scale(0.015625)"/>
       <path id="DejaVuSans-4c" d="M 628 4666 
L 1259 4666 
L 1259 531 
L 3531 531 
L 3531 0 
L 628 0 
L 628 4666 
z
" transform="scale(0.015625)"/>
       <path id="DejaVuSans-20" transform="scale(0.015625)"/>
       <path id="DejaVuSans-6c" d="M 603 4863 
L 1178 4863 
L 1178 0 
L 603 0 
L 603 4863 
z
" transform="scale(0.015625)"/>
       <path id="DejaVuSans-73" d="M 2834 3397 
L 2834 2853 
Q 2591 2978 2328 3040 
Q 2066 3103 1784 3103 
Q 1356 3103 1142 2972 
Q 928 2841 928 2578 
Q 928 2378 1081 2264 
Q 1234 2150 1697 2047 
L 1894 2003 
Q 2506 1872 2764 1633 
Q 3022 1394 3022 966 
Q 3022 478 2636 193 
Q 2250 -91 1575 -91 
Q 1294 -91 989 -36 
Q 684 19 347 128 
L 347 722 
Q 666 556 975 473 
Q 1284 391 1588 391 
Q 1994 391 2212 530 
Q 2431 669 2431 922 
Q 2431 1156 2273 1281 
Q 2116 1406 1581 1522 
L 1381 1569 
Q 847 1681 609 1914 
Q 372 2147 372 2553 
Q 372 3047 722 3315 
Q 1072 3584 1716 3584 
Q 2034 3584 2315 3537 
Q 2597 3491 2834 3397 
z
" transform="scale(0.015625)"/>
      </defs>
      <use xlink:href="#DejaVuSans-53"/>
      <use xlink:href="#DejaVuSans-6d" transform="translate(63.476562 0)"/>
      <use xlink:href="#DejaVuSans-6f" transform="translate(160.888672 0)"/>
      <use xlink:href="#DejaVuSans-6f" transform="translate(222.070312 0)"/>
      <use xlink:href="#DejaVuSans-74" transform="translate(283.251953 0)"/>
      <use xlink:href="#DejaVuSans-68" transform="translate(322.460938 0)"/>
      <use xlink:href="#DejaVuSans-4c" transform="translate(385.839844 0)"/>
      <use xlink:href="#DejaVuSans-31" transform="translate(441.552734 0)"/>
      <use xlink:href="#DejaVuSans-20" transform="translate(505.175781 0)"/>
      <use xlink:href="#DejaVuSans-6c" transform="translate(536.962891 0)"/>
      <use xlink:href="#DejaVuSans-6f" transform="translate(564.746094 0)"/>
      <use xlink:href="#DejaVuSans-73" transform="translate(625.927734 0)"/>
      <use xlink:href="#DejaVuSans-73" transform="translate(678.027344 0)"/>
     </g>
    </g>
   </g>
   <g id="line2d_29">
    <path d="M 81.008977 170.477543 
L 93.519479 223.673342 
L 106.02998 237.27161 
L 118.540482 250.156941 
L 131.050984 257.300122 
L 143.561485 263.149314 
L 156.071987 266.312417 
L 168.582488 268.785264 
L 181.09299 270.758623 
L 193.603491 274.852737 
L 206.113993 275.353267 
L 218.624495 277.14066 
L 231.134996 277.476324 
L 243.645498 280.059802 
L 256.155999 281.118475 
L 268.666501 281.951021 
L 281.177002 282.891667 
L 293.687504 284.855679 
L 306.198005 285.305055 
L 318.708507 285.154725 
L 331.219009 286.8536 
L 343.72951 286.197084 
L 356.240012 287.66043 
L 368.750513 288.267587 
L 381.261015 289.464285 
L 393.771516 289.684489 
L 406.282018 291.181469 
L 418.79252 291.237439 
L 431.303021 291.933135 
L 443.813523 291.509792 
" clip-path="url(#p7f8be4b3b8)" style="fill: none; stroke: #1f77b4; stroke-width: 1.8; stroke-linecap: square"/>
   </g>
   <g id="line2d_30">
    <path d="M 81.008977 186.632516 
L 93.519479 228.380162 
L 106.02998 240.741349 
L 118.540482 248.989964 
L 131.050984 255.850317 
L 143.561485 260.775804 
L 156.071987 264.725761 
L 168.582488 265.517593 
L 181.09299 269.849869 
L 193.603491 273.135229 
L 206.113993 274.887258 
L 218.624495 276.484026 
L 231.134996 278.765376 
L 243.645498 279.336391 
L 256.155999 280.475527 
L 268.666501 282.191299 
L 281.177002 284.206649 
L 293.687504 284.011968 
L 306.198005 285.559765 
L 318.708507 285.12859 
L 331.219009 286.203346 
L 343.72951 287.866958 
L 356.240012 287.935483 
L 368.750513 289.155791 
L 381.261015 289.27422 
L 393.771516 289.388486 
L 406.282018 289.995128 
L 418.79252 290.272923 
L 431.303021 291.621286 
L 443.813523 292.428 
" clip-path="url(#p7f8be4b3b8)" style="fill: none; stroke: #ff7f0e; stroke-width: 1.8; stroke-linecap: square"/>
   </g>
   <g id="line2d_31">
    <path d="M 81.008977 87.225686 
L 93.519479 213.342862 
L 106.02998 221.665616 
L 118.540482 228.510741 
L 131.050984 233.944029 
L 143.561485 237.035819 
L 156.071987 240.182491 
L 168.582488 242.727849 
L 181.09299 245.627768 
L 193.603491 247.200697 
L 206.113993 248.166022 
L 218.624495 250.49936 
L 231.134996 250.788305 
L 243.645498 253.286778 
L 256.155999 253.944546 
L 268.666501 254.926046 
L 281.177002 255.492311 
L 293.687504 256.841818 
L 306.198005 257.895823 
L 318.708507 258.15667 
L 331.219009 259.158869 
L 343.72951 259.190028 
L 356.240012 260.102727 
L 368.750513 259.651102 
L 381.261015 261.264042 
L 393.771516 262.296605 
L 406.282018 262.061583 
L 418.79252 262.859638 
L 431.303021 263.246105 
L 443.813523 263.37365 
" clip-path="url(#p7f8be4b3b8)" style="fill: none; stroke: #2ca02c; stroke-width: 1.8; stroke-linecap: square"/>
   </g>
   <g id="line2d_32">
    <path d="M 81.008977 62.428 
L 93.519479 207.024593 
L 106.02998 212.367023 
L 118.540482 216.221935 
L 131.050984 218.5907 
L 143.561485 220.945855 
L 156.071987 224.012865 
L 168.582488 227.584357 
L 181.09299 230.615226 
L 193.603491 232.571572 
L 206.113993 234.789352 
L 218.624495 236.569051 
L 231.134996 238.677749 
L 243.645498 240.780686 
L 256.155999 243.017404 
L 268.666501 244.474651 
L 281.177002 246.268077 
L 293.687504 247.322953 
L 306.198005 248.371811 
L 318.708507 251.335112 
L 331.219009 252.10022 
L 343.72951 253.918384 
L 356.240012 252.251421 
L 368.750513 256.117321 
L 381.261015 254.253125 
L 393.771516 256.632923 
L 406.282018 257.315386 
L 418.79252 258.017634 
L 431.303021 258.918415 
L 443.813523 259.580702 
" clip-path="url(#p7f8be4b3b8)" style="fill: none; stroke: #d62728; stroke-width: 1.8; stroke-linecap: square"/>
   </g>
   <g id="line2d_33">
    <path d="M 81.008977 150.23531 
L 93.519479 217.558639 
L 106.02998 225.954055 
L 118.540482 234.168522 
L 131.050984 240.381206 
L 143.561485 245.436847 
L 156.071987 249.796276 
L 168.582488 251.551627 
L 181.09299 254.316905 
L 193.603491 257.810213 
L 206.113993 259.30796 
L 218.624495 260.636816 
L 231.134996 263.888571 
L 243.645498 264.515181 
L 256.155999 266.32274 
L 268.666501 266.927857 
L 281.177002 269.087948 
L 293.687504 269.428769 
L 306.198005 269.783302 
L 318.708507 270.382235 
L 331.219009 272.191583 
L 343.72951 271.740694 
L 356.240012 272.263409 
L 368.750513 272.506531 
L 381.261015 273.155123 
L 393.771516 275.06051 
L 406.282018 275.24751 
L 418.79252 275.802818 
L 431.303021 275.791936 
L 443.813523 275.66028 
" clip-path="url(#p7f8be4b3b8)" style="fill: none; stroke: #9467bd; stroke-width: 1.8; stroke-linecap: square"/>
   </g>
   <g id="line2d_34">
    <path d="M 81.008977 67.923066 
L 93.519479 215.829937 
L 106.02998 224.251622 
L 118.540482 230.95109 
L 131.050984 237.681656 
L 143.561485 243.947501 
L 156.071987 248.826677 
L 168.582488 251.093245 
L 181.09299 254.313092 
L 193.603491 255.462909 
L 206.113993 257.865723 
L 218.624495 258.454171 
L 231.134996 260.695419 
L 243.645498 261.703676 
L 256.155999 264.252182 
L 268.666501 266.057135 
L 281.177002 266.750487 
L 293.687504 267.337516 
L 306.198005 269.054674 
L 318.708507 269.934209 
L 331.219009 270.406867 
L 343.72951 271.619387 
L 356.240012 271.063765 
L 368.750513 273.339117 
L 381.261015 273.967946 
L 393.771516 273.064613 
L 406.282018 275.125483 
L 418.79252 274.671767 
L 431.303021 276.115661 
L 443.813523 276.272642 
" clip-path="url(#p7f8be4b3b8)" style="fill: none; stroke: #8c564b; stroke-width: 1.8; stroke-linecap: square"/>
   </g>
   <g id="patch_3">
    <path d="M 62.86875 303.928 
L 62.86875 50.928 
" style="fill: none; stroke: #000000; stroke-width: 0.8; stroke-linejoin: miter; stroke-linecap: square"/>
   </g>
   <g id="patch_4">
    <path d="M 461.95375 303.928 
L 461.95375 50.928 
" style="fill: none; stroke: #000000; stroke-width: 0.8; stroke-linejoin: miter; stroke-linecap: square"/>
   </g>
   <g id="patch_5">
    <path d="M 62.86875 303.928 
L 461.95375 303.928 
" style="fill: none; stroke: #000000; stroke-width: 0.8; stroke-linejoin: miter; stroke-linecap: square"/>
   </g>
   <g id="patch_6">
    <path d="M 62.86875 50.928 
L 461.95375 50.928 
" style="fill: none; stroke: #000000; stroke-width: 0.8; stroke-linejoin: miter; stroke-linecap: square"/>
   </g>
   <g id="text_17">
    <!-- Train loss -->
    <g transform="translate(234.5225 44.928) scale(0.12 -0.12)">
     <defs>
      <path id="DejaVuSans-54" d="M -19 4666 
L 3928 4666 
L 3928 4134 
L 2272 4134 
L 2272 0 
L 1638 0 
L 1638 4134 
L -19 4134 
L -19 4666 
z
" transform="scale(0.015625)"/>
      <path id="DejaVuSans-72" d="M 2631 2963 
Q 2534 3019 2420 3045 
Q 2306 3072 2169 3072 
Q 1681 3072 1420 2755 
Q 1159 2438 1159 1844 
L 1159 0 
L 581 0 
L 581 3500 
L 1159 3500 
L 1159 2956 
Q 1341 3275 1631 3429 
Q 1922 3584 2338 3584 
Q 2397 3584 2469 3576 
Q 2541 3569 2628 3553 
L 2631 2963 
z
" transform="scale(0.015625)"/>
      <path id="DejaVuSans-61" d="M 2194 1759 
Q 1497 1759 1228 1600 
Q 959 1441 959 1056 
Q 959 750 1161 570 
Q 1363 391 1709 391 
Q 2188 391 2477 730 
Q 2766 1069 2766 1631 
L 2766 1759 
L 2194 1759 
z
M 3341 1997 
L 3341 0 
L 2766 0 
L 2766 531 
Q 2569 213 2275 61 
Q 1981 -91 1556 -91 
Q 1019 -91 701 211 
Q 384 513 384 1019 
Q 384 1609 779 1909 
Q 1175 2209 1959 2209 
L 2766 2209 
L 2766 2266 
Q 2766 2663 2505 2880 
Q 2244 3097 1772 3097 
Q 1472 3097 1187 3025 
Q 903 2953 641 2809 
L 641 3341 
Q 956 3463 1253 3523 
Q 1550 3584 1831 3584 
Q 2591 3584 2966 3190 
Q 3341 2797 3341 1997 
z
" transform="scale(0.015625)"/>
      <path id="DejaVuSans-69" d="M 603 3500 
L 1178 3500 
L 1178 0 
L 603 0 
L 603 3500 
z
M 603 4863 
L 1178 4863 
L 1178 4134 
L 603 4134 
L 603 4863 
z
" transform="scale(0.015625)"/>
      <path id="DejaVuSans-6e" d="M 3513 2113 
L 3513 0 
L 2938 0 
L 2938 2094 
Q 2938 2591 2744 2837 
Q 2550 3084 2163 3084 
Q 1697 3084 1428 2787 
Q 1159 2491 1159 1978 
L 1159 0 
L 581 0 
L 581 3500 
L 1159 3500 
L 1159 2956 
Q 1366 3272 1645 3428 
Q 1925 3584 2291 3584 
Q 2894 3584 3203 3211 
Q 3513 2838 3513 2113 
z
" transform="scale(0.015625)"/>
     </defs>
     <use xlink:href="#DejaVuSans-54"/>
     <use xlink:href="#DejaVuSans-72" transform="translate(46.333984 0)"/>
     <use xlink:href="#DejaVuSans-61" transform="translate(87.447266 0)"/>
     <use xlink:href="#DejaVuSans-69" transform="translate(148.726562 0)"/>
     <use xlink:href="#DejaVuSans-6e" transform="translate(176.509766 0)"/>
     <use xlink:href="#DejaVuSans-20" transform="translate(239.888672 0)"/>
     <use xlink:href="#DejaVuSans-6c" transform="translate(271.675781 0)"/>
     <use xlink:href="#DejaVuSans-6f" transform="translate(299.458984 0)"/>
     <use xlink:href="#DejaVuSans-73" transform="translate(360.640625 0)"/>
     <use xlink:href="#DejaVuSans-73" transform="translate(412.740234 0)"/>
    </g>
   </g>
  </g>
  <g id="axes_2">
   <g id="patch_7">
    <path d="M 522.36375 303.928 
L 921.44875 303.928 
L 921.44875 50.928 
L 522.36375 50.928 
z
" style="fill: #ffffff"/>
   </g>
   <g id="matplotlib.axis_3">
    <g id="xtick_8">
     <g id="line2d_35">
      <path d="M 527.993476 303.928 
L 527.993476 50.928 
" clip-path="url(#p3dd8c5b5f5)" style="fill: none; stroke: #b0b0b0; stroke-opacity: 0.28; stroke-width: 0.8; stroke-linecap: square"/>
     </g>
     <g id="line2d_36">
      <g>
       <use xlink:href="#me8e486e46f" x="527.993476" y="303.928" style="stroke: #000000; stroke-width: 0.8"/>
      </g>
     </g>
     <g id="text_18">
      <!-- 0 -->
      <g transform="translate(524.812226 318.526437) scale(0.1 -0.1)">
       <use xlink:href="#DejaVuSans-30"/>
      </g>
     </g>
    </g>
    <g id="xtick_9">
     <g id="line2d_37">
      <path d="M 590.545984 303.928 
L 590.545984 50.928 
" clip-path="url(#p3dd8c5b5f5)" style="fill: none; stroke: #b0b0b0; stroke-opacity: 0.28; stroke-width: 0.8; stroke-linecap: square"/>
     </g>
     <g id="line2d_38">
      <g>
       <use xlink:href="#me8e486e46f" x="590.545984" y="303.928" style="stroke: #000000; stroke-width: 0.8"/>
      </g>
     </g>
     <g id="text_19">
      <!-- 5 -->
      <g transform="translate(587.364734 318.526437) scale(0.1 -0.1)">
       <use xlink:href="#DejaVuSans-35"/>
      </g>
     </g>
    </g>
    <g id="xtick_10">
     <g id="line2d_39">
      <path d="M 653.098491 303.928 
L 653.098491 50.928 
" clip-path="url(#p3dd8c5b5f5)" style="fill: none; stroke: #b0b0b0; stroke-opacity: 0.28; stroke-width: 0.8; stroke-linecap: square"/>
     </g>
     <g id="line2d_40">
      <g>
       <use xlink:href="#me8e486e46f" x="653.098491" y="303.928" style="stroke: #000000; stroke-width: 0.8"/>
      </g>
     </g>
     <g id="text_20">
      <!-- 10 -->
      <g transform="translate(646.735991 318.526437) scale(0.1 -0.1)">
       <use xlink:href="#DejaVuSans-31"/>
       <use xlink:href="#DejaVuSans-30" transform="translate(63.623047 0)"/>
      </g>
     </g>
    </g>
    <g id="xtick_11">
     <g id="line2d_41">
      <path d="M 715.650999 303.928 
L 715.650999 50.928 
" clip-path="url(#p3dd8c5b5f5)" style="fill: none; stroke: #b0b0b0; stroke-opacity: 0.28; stroke-width: 0.8; stroke-linecap: square"/>
     </g>
     <g id="line2d_42">
      <g>
       <use xlink:href="#me8e486e46f" x="715.650999" y="303.928" style="stroke: #000000; stroke-width: 0.8"/>
      </g>
     </g>
     <g id="text_21">
      <!-- 15 -->
      <g transform="translate(709.288499 318.526437) scale(0.1 -0.1)">
       <use xlink:href="#DejaVuSans-31"/>
       <use xlink:href="#DejaVuSans-35" transform="translate(63.623047 0)"/>
      </g>
     </g>
    </g>
    <g id="xtick_12">
     <g id="line2d_43">
      <path d="M 778.203507 303.928 
L 778.203507 50.928 
" clip-path="url(#p3dd8c5b5f5)" style="fill: none; stroke: #b0b0b0; stroke-opacity: 0.28; stroke-width: 0.8; stroke-linecap: square"/>
     </g>
     <g id="line2d_44">
      <g>
       <use xlink:href="#me8e486e46f" x="778.203507" y="303.928" style="stroke: #000000; stroke-width: 0.8"/>
      </g>
     </g>
     <g id="text_22">
      <!-- 20 -->
      <g transform="translate(771.841007 318.526437) scale(0.1 -0.1)">
       <use xlink:href="#DejaVuSans-32"/>
       <use xlink:href="#DejaVuSans-30" transform="translate(63.623047 0)"/>
      </g>
     </g>
    </g>
    <g id="xtick_13">
     <g id="line2d_45">
      <path d="M 840.756015 303.928 
L 840.756015 50.928 
" clip-path="url(#p3dd8c5b5f5)" style="fill: none; stroke: #b0b0b0; stroke-opacity: 0.28; stroke-width: 0.8; stroke-linecap: square"/>
     </g>
     <g id="line2d_46">
      <g>
       <use xlink:href="#me8e486e46f" x="840.756015" y="303.928" style="stroke: #000000; stroke-width: 0.8"/>
      </g>
     </g>
     <g id="text_23">
      <!-- 25 -->
      <g transform="translate(834.393515 318.526437) scale(0.1 -0.1)">
       <use xlink:href="#DejaVuSans-32"/>
       <use xlink:href="#DejaVuSans-35" transform="translate(63.623047 0)"/>
      </g>
     </g>
    </g>
    <g id="xtick_14">
     <g id="line2d_47">
      <path d="M 903.308523 303.928 
L 903.308523 50.928 
" clip-path="url(#p3dd8c5b5f5)" style="fill: none; stroke: #b0b0b0; stroke-opacity: 0.28; stroke-width: 0.8; stroke-linecap: square"/>
     </g>
     <g id="line2d_48">
      <g>
       <use xlink:href="#me8e486e46f" x="903.308523" y="303.928" style="stroke: #000000; stroke-width: 0.8"/>
      </g>
     </g>
     <g id="text_24">
      <!-- 30 -->
      <g transform="translate(896.946023 318.526437) scale(0.1 -0.1)">
       <use xlink:href="#DejaVuSans-33"/>
       <use xlink:href="#DejaVuSans-30" transform="translate(63.623047 0)"/>
      </g>
     </g>
    </g>
    <g id="text_25">
     <!-- Epoch -->
     <g transform="translate(706.595312 332.204562) scale(0.1 -0.1)">
      <use xlink:href="#DejaVuSans-45"/>
      <use xlink:href="#DejaVuSans-70" transform="translate(63.183594 0)"/>
      <use xlink:href="#DejaVuSans-6f" transform="translate(126.660156 0)"/>
      <use xlink:href="#DejaVuSans-63" transform="translate(187.841797 0)"/>
      <use xlink:href="#DejaVuSans-68" transform="translate(242.822266 0)"/>
     </g>
    </g>
   </g>
   <g id="matplotlib.axis_4">
    <g id="ytick_8">
     <g id="line2d_49">
      <path d="M 522.36375 297.470425 
L 921.44875 297.470425 
" clip-path="url(#p3dd8c5b5f5)" style="fill: none; stroke: #b0b0b0; stroke-opacity: 0.28; stroke-width: 0.8; stroke-linecap: square"/>
     </g>
     <g id="line2d_50">
      <g>
       <use xlink:href="#m8551cf8610" x="522.36375" y="297.470425" style="stroke: #000000; stroke-width: 0.8"/>
      </g>
     </g>
     <g id="text_26">
      <!-- 0.012 -->
      <g transform="translate(486.735625 301.269644) scale(0.1 -0.1)">
       <use xlink:href="#DejaVuSans-30"/>
       <use xlink:href="#DejaVuSans-2e" transform="translate(63.623047 0)"/>
       <use xlink:href="#DejaVuSans-30" transform="translate(95.410156 0)"/>
       <use xlink:href="#DejaVuSans-31" transform="translate(159.033203 0)"/>
       <use xlink:href="#DejaVuSans-32" transform="translate(222.65625 0)"/>
      </g>
     </g>
    </g>
    <g id="ytick_9">
     <g id="line2d_51">
      <path d="M 522.36375 257.717604 
L 921.44875 257.717604 
" clip-path="url(#p3dd8c5b5f5)" style="fill: none; stroke: #b0b0b0; stroke-opacity: 0.28; stroke-width: 0.8; stroke-linecap: square"/>
     </g>
     <g id="line2d_52">
      <g>
       <use xlink:href="#m8551cf8610" x="522.36375" y="257.717604" style="stroke: #000000; stroke-width: 0.8"/>
      </g>
     </g>
     <g id="text_27">
      <!-- 0.014 -->
      <g transform="translate(486.735625 261.516823) scale(0.1 -0.1)">
       <defs>
        <path id="DejaVuSans-34" d="M 2419 4116 
L 825 1625 
L 2419 1625 
L 2419 4116 
z
M 2253 4666 
L 3047 4666 
L 3047 1625 
L 3713 1625 
L 3713 1100 
L 3047 1100 
L 3047 0 
L 2419 0 
L 2419 1100 
L 313 1100 
L 313 1709 
L 2253 4666 
z
" transform="scale(0.015625)"/>
       </defs>
       <use xlink:href="#DejaVuSans-30"/>
       <use xlink:href="#DejaVuSans-2e" transform="translate(63.623047 0)"/>
       <use xlink:href="#DejaVuSans-30" transform="translate(95.410156 0)"/>
       <use xlink:href="#DejaVuSans-31" transform="translate(159.033203 0)"/>
       <use xlink:href="#DejaVuSans-34" transform="translate(222.65625 0)"/>
      </g>
     </g>
    </g>
    <g id="ytick_10">
     <g id="line2d_53">
      <path d="M 522.36375 217.964783 
L 921.44875 217.964783 
" clip-path="url(#p3dd8c5b5f5)" style="fill: none; stroke: #b0b0b0; stroke-opacity: 0.28; stroke-width: 0.8; stroke-linecap: square"/>
     </g>
     <g id="line2d_54">
      <g>
       <use xlink:href="#m8551cf8610" x="522.36375" y="217.964783" style="stroke: #000000; stroke-width: 0.8"/>
      </g>
     </g>
     <g id="text_28">
      <!-- 0.016 -->
      <g transform="translate(486.735625 221.764002) scale(0.1 -0.1)">
       <defs>
        <path id="DejaVuSans-36" d="M 2113 2584 
Q 1688 2584 1439 2293 
Q 1191 2003 1191 1497 
Q 1191 994 1439 701 
Q 1688 409 2113 409 
Q 2538 409 2786 701 
Q 3034 994 3034 1497 
Q 3034 2003 2786 2293 
Q 2538 2584 2113 2584 
z
M 3366 4563 
L 3366 3988 
Q 3128 4100 2886 4159 
Q 2644 4219 2406 4219 
Q 1781 4219 1451 3797 
Q 1122 3375 1075 2522 
Q 1259 2794 1537 2939 
Q 1816 3084 2150 3084 
Q 2853 3084 3261 2657 
Q 3669 2231 3669 1497 
Q 3669 778 3244 343 
Q 2819 -91 2113 -91 
Q 1303 -91 875 529 
Q 447 1150 447 2328 
Q 447 3434 972 4092 
Q 1497 4750 2381 4750 
Q 2619 4750 2861 4703 
Q 3103 4656 3366 4563 
z
" transform="scale(0.015625)"/>
       </defs>
       <use xlink:href="#DejaVuSans-30"/>
       <use xlink:href="#DejaVuSans-2e" transform="translate(63.623047 0)"/>
       <use xlink:href="#DejaVuSans-30" transform="translate(95.410156 0)"/>
       <use xlink:href="#DejaVuSans-31" transform="translate(159.033203 0)"/>
       <use xlink:href="#DejaVuSans-36" transform="translate(222.65625 0)"/>
      </g>
     </g>
    </g>
    <g id="ytick_11">
     <g id="line2d_55">
      <path d="M 522.36375 178.211962 
L 921.44875 178.211962 
" clip-path="url(#p3dd8c5b5f5)" style="fill: none; stroke: #b0b0b0; stroke-opacity: 0.28; stroke-width: 0.8; stroke-linecap: square"/>
     </g>
     <g id="line2d_56">
      <g>
       <use xlink:href="#m8551cf8610" x="522.36375" y="178.211962" style="stroke: #000000; stroke-width: 0.8"/>
      </g>
     </g>
     <g id="text_29">
      <!-- 0.018 -->
      <g transform="translate(486.735625 182.01118) scale(0.1 -0.1)">
       <defs>
        <path id="DejaVuSans-38" d="M 2034 2216 
Q 1584 2216 1326 1975 
Q 1069 1734 1069 1313 
Q 1069 891 1326 650 
Q 1584 409 2034 409 
Q 2484 409 2743 651 
Q 3003 894 3003 1313 
Q 3003 1734 2745 1975 
Q 2488 2216 2034 2216 
z
M 1403 2484 
Q 997 2584 770 2862 
Q 544 3141 544 3541 
Q 544 4100 942 4425 
Q 1341 4750 2034 4750 
Q 2731 4750 3128 4425 
Q 3525 4100 3525 3541 
Q 3525 3141 3298 2862 
Q 3072 2584 2669 2484 
Q 3125 2378 3379 2068 
Q 3634 1759 3634 1313 
Q 3634 634 3220 271 
Q 2806 -91 2034 -91 
Q 1263 -91 848 271 
Q 434 634 434 1313 
Q 434 1759 690 2068 
Q 947 2378 1403 2484 
z
M 1172 3481 
Q 1172 3119 1398 2916 
Q 1625 2713 2034 2713 
Q 2441 2713 2670 2916 
Q 2900 3119 2900 3481 
Q 2900 3844 2670 4047 
Q 2441 4250 2034 4250 
Q 1625 4250 1398 4047 
Q 1172 3844 1172 3481 
z
" transform="scale(0.015625)"/>
       </defs>
       <use xlink:href="#DejaVuSans-30"/>
       <use xlink:href="#DejaVuSans-2e" transform="translate(63.623047 0)"/>
       <use xlink:href="#DejaVuSans-30" transform="translate(95.410156 0)"/>
       <use xlink:href="#DejaVuSans-31" transform="translate(159.033203 0)"/>
       <use xlink:href="#DejaVuSans-38" transform="translate(222.65625 0)"/>
      </g>
     </g>
    </g>
    <g id="ytick_12">
     <g id="line2d_57">
      <path d="M 522.36375 138.45914 
L 921.44875 138.45914 
" clip-path="url(#p3dd8c5b5f5)" style="fill: none; stroke: #b0b0b0; stroke-opacity: 0.28; stroke-width: 0.8; stroke-linecap: square"/>
     </g>
     <g id="line2d_58">
      <g>
       <use xlink:href="#m8551cf8610" x="522.36375" y="138.45914" style="stroke: #000000; stroke-width: 0.8"/>
      </g>
     </g>
     <g id="text_30">
      <!-- 0.020 -->
      <g transform="translate(486.735625 142.258359) scale(0.1 -0.1)">
       <use xlink:href="#DejaVuSans-30"/>
       <use xlink:href="#DejaVuSans-2e" transform="translate(63.623047 0)"/>
       <use xlink:href="#DejaVuSans-30" transform="translate(95.410156 0)"/>
       <use xlink:href="#DejaVuSans-32" transform="translate(159.033203 0)"/>
       <use xlink:href="#DejaVuSans-30" transform="translate(222.65625 0)"/>
      </g>
     </g>
    </g>
    <g id="ytick_13">
     <g id="line2d_59">
      <path d="M 522.36375 98.706319 
L 921.44875 98.706319 
" clip-path="url(#p3dd8c5b5f5)" style="fill: none; stroke: #b0b0b0; stroke-opacity: 0.28; stroke-width: 0.8; stroke-linecap: square"/>
     </g>
     <g id="line2d_60">
      <g>
       <use xlink:href="#m8551cf8610" x="522.36375" y="98.706319" style="stroke: #000000; stroke-width: 0.8"/>
      </g>
     </g>
     <g id="text_31">
      <!-- 0.022 -->
      <g transform="translate(486.735625 102.505538) scale(0.1 -0.1)">
       <use xlink:href="#DejaVuSans-30"/>
       <use xlink:href="#DejaVuSans-2e" transform="translate(63.623047 0)"/>
       <use xlink:href="#DejaVuSans-30" transform="translate(95.410156 0)"/>
       <use xlink:href="#DejaVuSans-32" transform="translate(159.033203 0)"/>
       <use xlink:href="#DejaVuSans-32" transform="translate(222.65625 0)"/>
      </g>
     </g>
    </g>
    <g id="ytick_14">
     <g id="line2d_61">
      <path d="M 522.36375 58.953498 
L 921.44875 58.953498 
" clip-path="url(#p3dd8c5b5f5)" style="fill: none; stroke: #b0b0b0; stroke-opacity: 0.28; stroke-width: 0.8; stroke-linecap: square"/>
     </g>
     <g id="line2d_62">
      <g>
       <use xlink:href="#m8551cf8610" x="522.36375" y="58.953498" style="stroke: #000000; stroke-width: 0.8"/>
      </g>
     </g>
     <g id="text_32">
      <!-- 0.024 -->
      <g transform="translate(486.735625 62.752717) scale(0.1 -0.1)">
       <use xlink:href="#DejaVuSans-30"/>
       <use xlink:href="#DejaVuSans-2e" transform="translate(63.623047 0)"/>
       <use xlink:href="#DejaVuSans-30" transform="translate(95.410156 0)"/>
       <use xlink:href="#DejaVuSans-32" transform="translate(159.033203 0)"/>
       <use xlink:href="#DejaVuSans-34" transform="translate(222.65625 0)"/>
      </g>
     </g>
    </g>
    <g id="text_33">
     <!-- SmoothL1 loss -->
     <g transform="translate(480.655937 213.93425) rotate(-90) scale(0.1 -0.1)">
      <use xlink:href="#DejaVuSans-53"/>
      <use xlink:href="#DejaVuSans-6d" transform="translate(63.476562 0)"/>
      <use xlink:href="#DejaVuSans-6f" transform="translate(160.888672 0)"/>
      <use xlink:href="#DejaVuSans-6f" transform="translate(222.070312 0)"/>
      <use xlink:href="#DejaVuSans-74" transform="translate(283.251953 0)"/>
      <use xlink:href="#DejaVuSans-68" transform="translate(322.460938 0)"/>
      <use xlink:href="#DejaVuSans-4c" transform="translate(385.839844 0)"/>
      <use xlink:href="#DejaVuSans-31" transform="translate(441.552734 0)"/>
      <use xlink:href="#DejaVuSans-20" transform="translate(505.175781 0)"/>
      <use xlink:href="#DejaVuSans-6c" transform="translate(536.962891 0)"/>
      <use xlink:href="#DejaVuSans-6f" transform="translate(564.746094 0)"/>
      <use xlink:href="#DejaVuSans-73" transform="translate(625.927734 0)"/>
      <use xlink:href="#DejaVuSans-73" transform="translate(678.027344 0)"/>
     </g>
    </g>
   </g>
   <g id="line2d_63">
    <path d="M 540.503977 280.240844 
L 553.014479 277.364595 
L 565.52498 285.30148 
L 578.035482 255.171013 
L 590.545984 226.727127 
L 603.056485 208.489275 
L 615.566987 196.663325 
L 628.077488 195.521851 
L 640.58799 162.967174 
L 653.098491 155.885135 
L 665.608993 146.21069 
L 678.119495 138.943907 
L 690.629996 140.482666 
L 703.140498 118.548017 
L 715.650999 123.173603 
L 728.161501 112.946605 
L 740.672002 106.20519 
L 753.182504 110.044538 
L 765.693005 90.388989 
L 778.203507 92.503846 
L 790.714009 95.64154 
L 803.22451 92.196904 
L 815.735012 88.014903 
L 828.245513 70.866322 
L 840.756015 82.608851 
L 853.266516 78.998714 
L 865.777018 69.716584 
L 878.28752 84.653808 
L 890.798021 62.428 
L 903.308523 75.445708 
" clip-path="url(#p3dd8c5b5f5)" style="fill: none; stroke: #1f77b4; stroke-width: 1.8; stroke-linecap: square"/>
   </g>
   <g id="line2d_64">
    <path d="M 540.503977 286.112678 
L 553.014479 283.078035 
L 565.52498 255.287671 
L 578.035482 241.581484 
L 590.545984 228.911271 
L 603.056485 212.244557 
L 615.566987 214.363165 
L 628.077488 205.358064 
L 640.58799 210.41071 
L 653.098491 175.228875 
L 665.608993 175.439351 
L 678.119495 174.43326 
L 690.629996 153.964588 
L 703.140498 167.152693 
L 715.650999 164.616333 
L 728.161501 164.489521 
L 740.672002 136.569778 
L 753.182504 166.113958 
L 765.693005 137.610057 
L 778.203507 121.301963 
L 790.714009 143.406174 
L 803.22451 119.942581 
L 815.735012 130.018385 
L 828.245513 152.485695 
L 840.756015 137.593982 
L 853.266516 131.743121 
L 865.777018 155.283593 
L 878.28752 144.814981 
L 890.798021 142.229969 
L 903.308523 151.704428 
" clip-path="url(#p3dd8c5b5f5)" style="fill: none; stroke: #ff7f0e; stroke-width: 1.8; stroke-linecap: square"/>
   </g>
   <g id="line2d_65">
    <path d="M 540.503977 265.857243 
L 553.014479 269.49076 
L 565.52498 273.855754 
L 578.035482 276.827875 
L 590.545984 261.61673 
L 603.056485 257.099773 
L 615.566987 257.813242 
L 628.077488 267.011633 
L 640.58799 264.27905 
L 653.098491 251.923388 
L 665.608993 268.525206 
L 678.119495 231.757365 
L 690.629996 253.573946 
L 703.140498 239.6698 
L 715.650999 244.708471 
L 728.161501 239.182017 
L 740.672002 214.048152 
L 753.182504 225.037503 
L 765.693005 229.297599 
L 778.203507 224.084016 
L 790.714009 216.479103 
L 803.22451 221.496846 
L 815.735012 217.66494 
L 828.245513 212.629633 
L 840.756015 217.028614 
L 853.266516 204.166491 
L 865.777018 206.902044 
L 878.28752 214.422149 
L 890.798021 207.623678 
L 903.308523 217.631667 
" clip-path="url(#p3dd8c5b5f5)" style="fill: none; stroke: #2ca02c; stroke-width: 1.8; stroke-linecap: square"/>
   </g>
   <g id="line2d_66">
    <path d="M 540.503977 245.806631 
L 553.014479 257.204961 
L 565.52498 267.233714 
L 578.035482 268.851316 
L 590.545984 255.778153 
L 603.056485 272.821847 
L 615.566987 260.085067 
L 628.077488 263.811551 
L 640.58799 270.635296 
L 653.098491 253.950485 
L 665.608993 259.470586 
L 678.119495 239.025822 
L 690.629996 230.339133 
L 703.140498 218.991855 
L 715.650999 215.20242 
L 728.161501 210.67229 
L 740.672002 196.350214 
L 753.182504 177.496552 
L 765.693005 193.577399 
L 778.203507 178.545834 
L 790.714009 177.653829 
L 803.22451 173.297057 
L 815.735012 166.385518 
L 828.245513 161.076116 
L 840.756015 164.721805 
L 853.266516 167.027743 
L 865.777018 154.771526 
L 878.28752 132.306785 
L 890.798021 140.165934 
L 903.308523 141.882587 
" clip-path="url(#p3dd8c5b5f5)" style="fill: none; stroke: #d62728; stroke-width: 1.8; stroke-linecap: square"/>
   </g>
   <g id="line2d_67">
    <path d="M 540.503977 273.14096 
L 553.014479 271.860937 
L 565.52498 280.962064 
L 578.035482 288.078038 
L 590.545984 283.058599 
L 603.056485 271.166516 
L 615.566987 266.345587 
L 628.077488 268.099174 
L 640.58799 259.809911 
L 653.098491 248.258084 
L 665.608993 239.54773 
L 678.119495 256.427427 
L 690.629996 234.717896 
L 703.140498 234.822166 
L 715.650999 228.623593 
L 728.161501 228.955903 
L 740.672002 209.638052 
L 753.182504 219.561337 
L 765.693005 205.357058 
L 778.203507 197.196119 
L 790.714009 203.216807 
L 803.22451 192.867237 
L 815.735012 195.414519 
L 828.245513 197.669875 
L 840.756015 201.061494 
L 853.266516 181.570856 
L 865.777018 191.93723 
L 878.28752 177.087588 
L 890.798021 161.783122 
L 903.308523 174.211823 
" clip-path="url(#p3dd8c5b5f5)" style="fill: none; stroke: #9467bd; stroke-width: 1.8; stroke-linecap: square"/>
   </g>
   <g id="line2d_68">
    <path d="M 540.503977 275.399355 
L 553.014479 286.150953 
L 565.52498 286.920155 
L 578.035482 292.428 
L 590.545984 266.321114 
L 603.056485 247.891778 
L 615.566987 235.104605 
L 628.077488 228.020561 
L 640.58799 212.132569 
L 653.098491 204.27798 
L 665.608993 199.558667 
L 678.119495 188.078206 
L 690.629996 181.809139 
L 703.140498 177.515495 
L 715.650999 151.717176 
L 728.161501 154.888094 
L 740.672002 155.132356 
L 753.182504 134.745763 
L 765.693005 136.557738 
L 778.203507 123.80043 
L 790.714009 131.046408 
L 803.22451 128.309246 
L 815.735012 129.845093 
L 828.245513 121.189531 
L 840.756015 120.493015 
L 853.266516 117.177237 
L 865.777018 129.80765 
L 878.28752 116.605383 
L 890.798021 122.477261 
L 903.308523 116.197132 
" clip-path="url(#p3dd8c5b5f5)" style="fill: none; stroke: #8c564b; stroke-width: 1.8; stroke-linecap: square"/>
   </g>
   <g id="patch_8">
    <path d="M 522.36375 303.928 
L 522.36375 50.928 
" style="fill: none; stroke: #000000; stroke-width: 0.8; stroke-linejoin: miter; stroke-linecap: square"/>
   </g>
   <g id="patch_9">
    <path d="M 921.44875 303.928 
L 921.44875 50.928 
" style="fill: none; stroke: #000000; stroke-width: 0.8; stroke-linejoin: miter; stroke-linecap: square"/>
   </g>
   <g id="patch_10">
    <path d="M 522.36375 303.928 
L 921.44875 303.928 
" style="fill: none; stroke: #000000; stroke-width: 0.8; stroke-linejoin: miter; stroke-linecap: square"/>
   </g>
   <g id="patch_11">
    <path d="M 522.36375 50.928 
L 921.44875 50.928 
" style="fill: none; stroke: #000000; stroke-width: 0.8; stroke-linejoin: miter; stroke-linecap: square"/>
   </g>
   <g id="text_34">
    <!-- Validation loss -->
    <g transform="translate(678.78125 44.928) scale(0.12 -0.12)">
     <defs>
      <path id="DejaVuSans-56" d="M 1831 0 
L 50 4666 
L 709 4666 
L 2188 738 
L 3669 4666 
L 4325 4666 
L 2547 0 
L 1831 0 
z
" transform="scale(0.015625)"/>
      <path id="DejaVuSans-64" d="M 2906 2969 
L 2906 4863 
L 3481 4863 
L 3481 0 
L 2906 0 
L 2906 525 
Q 2725 213 2448 61 
Q 2172 -91 1784 -91 
Q 1150 -91 751 415 
Q 353 922 353 1747 
Q 353 2572 751 3078 
Q 1150 3584 1784 3584 
Q 2172 3584 2448 3432 
Q 2725 3281 2906 2969 
z
M 947 1747 
Q 947 1113 1208 752 
Q 1469 391 1925 391 
Q 2381 391 2643 752 
Q 2906 1113 2906 1747 
Q 2906 2381 2643 2742 
Q 2381 3103 1925 3103 
Q 1469 3103 1208 2742 
Q 947 2381 947 1747 
z
" transform="scale(0.015625)"/>
     </defs>
     <use xlink:href="#DejaVuSans-56"/>
     <use xlink:href="#DejaVuSans-61" transform="translate(60.658203 0)"/>
     <use xlink:href="#DejaVuSans-6c" transform="translate(121.9375 0)"/>
     <use xlink:href="#DejaVuSans-69" transform="translate(149.720703 0)"/>
     <use xlink:href="#DejaVuSans-64" transform="translate(177.503906 0)"/>
     <use xlink:href="#DejaVuSans-61" transform="translate(240.980469 0)"/>
     <use xlink:href="#DejaVuSans-74" transform="translate(302.259766 0)"/>
     <use xlink:href="#DejaVuSans-69" transform="translate(341.46875 0)"/>
     <use xlink:href="#DejaVuSans-6f" transform="translate(369.251953 0)"/>
     <use xlink:href="#DejaVuSans-6e" transform="translate(430.433594 0)"/>
     <use xlink:href="#DejaVuSans-20" transform="translate(493.8125 0)"/>
     <use xlink:href="#DejaVuSans-6c" transform="translate(525.599609 0)"/>
     <use xlink:href="#DejaVuSans-6f" transform="translate(553.382812 0)"/>
     <use xlink:href="#DejaVuSans-73" transform="translate(614.564453 0)"/>
     <use xlink:href="#DejaVuSans-73" transform="translate(666.664062 0)"/>
    </g>
   </g>
   <g id="legend_1">
    <g id="patch_12">
     <path d="M 527.26375 119.34425 
L 633.499687 119.34425 
Q 634.899687 119.34425 634.899687 117.94425 
L 634.899687 55.828 
Q 634.899687 54.428 633.499687 54.428 
L 527.26375 54.428 
Q 525.86375 54.428 525.86375 55.828 
L 525.86375 117.94425 
Q 525.86375 119.34425 527.26375 119.34425 
z
" style="fill: #ffffff; opacity: 0.8; stroke: #cccccc; stroke-linejoin: miter"/>
    </g>
    <g id="line2d_69">
     <path d="M 528.66375 60.096906 
L 535.66375 60.096906 
L 542.66375 60.096906 
" style="fill: none; stroke: #1f77b4; stroke-width: 1.8; stroke-linecap: square"/>
    </g>
    <g id="text_35">
     <!-- hdim64 latent_pool -->
     <g transform="translate(548.26375 62.546906) scale(0.07 -0.07)">
      <defs>
       <path id="DejaVuSans-65" d="M 3597 1894 
L 3597 1613 
L 953 1613 
Q 991 1019 1311 708 
Q 1631 397 2203 397 
Q 2534 397 2845 478 
Q 3156 559 3463 722 
L 3463 178 
Q 3153 47 2828 -22 
Q 2503 -91 2169 -91 
Q 1331 -91 842 396 
Q 353 884 353 1716 
Q 353 2575 817 3079 
Q 1281 3584 2069 3584 
Q 2775 3584 3186 3129 
Q 3597 2675 3597 1894 
z
M 3022 2063 
Q 3016 2534 2758 2815 
Q 2500 3097 2075 3097 
Q 1594 3097 1305 2825 
Q 1016 2553 972 2059 
L 3022 2063 
z
" transform="scale(0.015625)"/>
       <path id="DejaVuSans-5f" d="M 3263 -1063 
L 3263 -1509 
L -63 -1509 
L -63 -1063 
L 3263 -1063 
z
" transform="scale(0.015625)"/>
      </defs>
      <use xlink:href="#DejaVuSans-68"/>
      <use xlink:href="#DejaVuSans-64" transform="translate(63.378906 0)"/>
      <use xlink:href="#DejaVuSans-69" transform="translate(126.855469 0)"/>
      <use xlink:href="#DejaVuSans-6d" transform="translate(154.638672 0)"/>
      <use xlink:href="#DejaVuSans-36" transform="translate(252.050781 0)"/>
      <use xlink:href="#DejaVuSans-34" transform="translate(315.673828 0)"/>
      <use xlink:href="#DejaVuSans-20" transform="translate(379.296875 0)"/>
      <use xlink:href="#DejaVuSans-6c" transform="translate(411.083984 0)"/>
      <use xlink:href="#DejaVuSans-61" transform="translate(438.867188 0)"/>
      <use xlink:href="#DejaVuSans-74" transform="translate(500.146484 0)"/>
      <use xlink:href="#DejaVuSans-65" transform="translate(539.355469 0)"/>
      <use xlink:href="#DejaVuSans-6e" transform="translate(600.878906 0)"/>
      <use xlink:href="#DejaVuSans-74" transform="translate(664.257812 0)"/>
      <use xlink:href="#DejaVuSans-5f" transform="translate(703.466797 0)"/>
      <use xlink:href="#DejaVuSans-70" transform="translate(753.466797 0)"/>
      <use xlink:href="#DejaVuSans-6f" transform="translate(816.943359 0)"/>
      <use xlink:href="#DejaVuSans-6f" transform="translate(878.125 0)"/>
      <use xlink:href="#DejaVuSans-6c" transform="translate(939.306641 0)"/>
     </g>
    </g>
    <g id="line2d_70">
     <path d="M 528.66375 70.566281 
L 535.66375 70.566281 
L 542.66375 70.566281 
" style="fill: none; stroke: #ff7f0e; stroke-width: 1.8; stroke-linecap: square"/>
    </g>
    <g id="text_36">
     <!-- hdim64 temporal_mean -->
     <g transform="translate(548.26375 73.016281) scale(0.07 -0.07)">
      <use xlink:href="#DejaVuSans-68"/>
      <use xlink:href="#DejaVuSans-64" transform="translate(63.378906 0)"/>
      <use xlink:href="#DejaVuSans-69" transform="translate(126.855469 0)"/>
      <use xlink:href="#DejaVuSans-6d" transform="translate(154.638672 0)"/>
      <use xlink:href="#DejaVuSans-36" transform="translate(252.050781 0)"/>
      <use xlink:href="#DejaVuSans-34" transform="translate(315.673828 0)"/>
      <use xlink:href="#DejaVuSans-20" transform="translate(379.296875 0)"/>
      <use xlink:href="#DejaVuSans-74" transform="translate(411.083984 0)"/>
      <use xlink:href="#DejaVuSans-65" transform="translate(450.292969 0)"/>
      <use xlink:href="#DejaVuSans-6d" transform="translate(511.816406 0)"/>
      <use xlink:href="#DejaVuSans-70" transform="translate(609.228516 0)"/>
      <use xlink:href="#DejaVuSans-6f" transform="translate(672.705078 0)"/>
      <use xlink:href="#DejaVuSans-72" transform="translate(733.886719 0)"/>
      <use xlink:href="#DejaVuSans-61" transform="translate(775 0)"/>
      <use xlink:href="#DejaVuSans-6c" transform="translate(836.279297 0)"/>
      <use xlink:href="#DejaVuSans-5f" transform="translate(864.0625 0)"/>
      <use xlink:href="#DejaVuSans-6d" transform="translate(914.0625 0)"/>
      <use xlink:href="#DejaVuSans-65" transform="translate(1011.474609 0)"/>
      <use xlink:href="#DejaVuSans-61" transform="translate(1072.998047 0)"/>
      <use xlink:href="#DejaVuSans-6e" transform="translate(1134.277344 0)"/>
     </g>
    </g>
    <g id="line2d_71">
     <path d="M 528.66375 81.035656 
L 535.66375 81.035656 
L 542.66375 81.035656 
" style="fill: none; stroke: #2ca02c; stroke-width: 1.8; stroke-linecap: square"/>
    </g>
    <g id="text_37">
     <!-- hdim8 latent_pool -->
     <g transform="translate(548.26375 83.485656) scale(0.07 -0.07)">
      <use xlink:href="#DejaVuSans-68"/>
      <use xlink:href="#DejaVuSans-64" transform="translate(63.378906 0)"/>
      <use xlink:href="#DejaVuSans-69" transform="translate(126.855469 0)"/>
      <use xlink:href="#DejaVuSans-6d" transform="translate(154.638672 0)"/>
      <use xlink:href="#DejaVuSans-38" transform="translate(252.050781 0)"/>
      <use xlink:href="#DejaVuSans-20" transform="translate(315.673828 0)"/>
      <use xlink:href="#DejaVuSans-6c" transform="translate(347.460938 0)"/>
      <use xlink:href="#DejaVuSans-61" transform="translate(375.244141 0)"/>
      <use xlink:href="#DejaVuSans-74" transform="translate(436.523438 0)"/>
      <use xlink:href="#DejaVuSans-65" transform="translate(475.732422 0)"/>
      <use xlink:href="#DejaVuSans-6e" transform="translate(537.255859 0)"/>
      <use xlink:href="#DejaVuSans-74" transform="translate(600.634766 0)"/>
      <use xlink:href="#DejaVuSans-5f" transform="translate(639.84375 0)"/>
      <use xlink:href="#DejaVuSans-70" transform="translate(689.84375 0)"/>
      <use xlink:href="#DejaVuSans-6f" transform="translate(753.320312 0)"/>
      <use xlink:href="#DejaVuSans-6f" transform="translate(814.501953 0)"/>
      <use xlink:href="#DejaVuSans-6c" transform="translate(875.683594 0)"/>
     </g>
    </g>
    <g id="line2d_72">
     <path d="M 528.66375 91.505031 
L 535.66375 91.505031 
L 542.66375 91.505031 
" style="fill: none; stroke: #d62728; stroke-width: 1.8; stroke-linecap: square"/>
    </g>
    <g id="text_38">
     <!-- hdim8 temporal_mean -->
     <g transform="translate(548.26375 93.955031) scale(0.07 -0.07)">
      <use xlink:href="#DejaVuSans-68"/>
      <use xlink:href="#DejaVuSans-64" transform="translate(63.378906 0)"/>
      <use xlink:href="#DejaVuSans-69" transform="translate(126.855469 0)"/>
      <use xlink:href="#DejaVuSans-6d" transform="translate(154.638672 0)"/>
      <use xlink:href="#DejaVuSans-38" transform="translate(252.050781 0)"/>
      <use xlink:href="#DejaVuSans-20" transform="translate(315.673828 0)"/>
      <use xlink:href="#DejaVuSans-74" transform="translate(347.460938 0)"/>
      <use xlink:href="#DejaVuSans-65" transform="translate(386.669922 0)"/>
      <use xlink:href="#DejaVuSans-6d" transform="translate(448.193359 0)"/>
      <use xlink:href="#DejaVuSans-70" transform="translate(545.605469 0)"/>
      <use xlink:href="#DejaVuSans-6f" transform="translate(609.082031 0)"/>
      <use xlink:href="#DejaVuSans-72" transform="translate(670.263672 0)"/>
      <use xlink:href="#DejaVuSans-61" transform="translate(711.376953 0)"/>
      <use xlink:href="#DejaVuSans-6c" transform="translate(772.65625 0)"/>
      <use xlink:href="#DejaVuSans-5f" transform="translate(800.439453 0)"/>
      <use xlink:href="#DejaVuSans-6d" transform="translate(850.439453 0)"/>
      <use xlink:href="#DejaVuSans-65" transform="translate(947.851562 0)"/>
      <use xlink:href="#DejaVuSans-61" transform="translate(1009.375 0)"/>
      <use xlink:href="#DejaVuSans-6e" transform="translate(1070.654297 0)"/>
     </g>
    </g>
    <g id="line2d_73">
     <path d="M 528.66375 101.974406 
L 535.66375 101.974406 
L 542.66375 101.974406 
" style="fill: none; stroke: #9467bd; stroke-width: 1.8; stroke-linecap: square"/>
    </g>
    <g id="text_39">
     <!-- hdim16 latent_pool -->
     <g transform="translate(548.26375 104.424406) scale(0.07 -0.07)">
      <use xlink:href="#DejaVuSans-68"/>
      <use xlink:href="#DejaVuSans-64" transform="translate(63.378906 0)"/>
      <use xlink:href="#DejaVuSans-69" transform="translate(126.855469 0)"/>
      <use xlink:href="#DejaVuSans-6d" transform="translate(154.638672 0)"/>
      <use xlink:href="#DejaVuSans-31" transform="translate(252.050781 0)"/>
      <use xlink:href="#DejaVuSans-36" transform="translate(315.673828 0)"/>
      <use xlink:href="#DejaVuSans-20" transform="translate(379.296875 0)"/>
      <use xlink:href="#DejaVuSans-6c" transform="translate(411.083984 0)"/>
      <use xlink:href="#DejaVuSans-61" transform="translate(438.867188 0)"/>
      <use xlink:href="#DejaVuSans-74" transform="translate(500.146484 0)"/>
      <use xlink:href="#DejaVuSans-65" transform="translate(539.355469 0)"/>
      <use xlink:href="#DejaVuSans-6e" transform="translate(600.878906 0)"/>
      <use xlink:href="#DejaVuSans-74" transform="translate(664.257812 0)"/>
      <use xlink:href="#DejaVuSans-5f" transform="translate(703.466797 0)"/>
      <use xlink:href="#DejaVuSans-70" transform="translate(753.466797 0)"/>
      <use xlink:href="#DejaVuSans-6f" transform="translate(816.943359 0)"/>
      <use xlink:href="#DejaVuSans-6f" transform="translate(878.125 0)"/>
      <use xlink:href="#DejaVuSans-6c" transform="translate(939.306641 0)"/>
     </g>
    </g>
    <g id="line2d_74">
     <path d="M 528.66375 112.443781 
L 535.66375 112.443781 
L 542.66375 112.443781 
" style="fill: none; stroke: #8c564b; stroke-width: 1.8; stroke-linecap: square"/>
    </g>
    <g id="text_40">
     <!-- hdim16 temporal_mean -->
     <g transform="translate(548.26375 114.893781) scale(0.07 -0.07)">
      <use xlink:href="#DejaVuSans-68"/>
      <use xlink:href="#DejaVuSans-64" transform="translate(63.378906 0)"/>
      <use xlink:href="#DejaVuSans-69" transform="translate(126.855469 0)"/>
      <use xlink:href="#DejaVuSans-6d" transform="translate(154.638672 0)"/>
      <use xlink:href="#DejaVuSans-31" transform="translate(252.050781 0)"/>
      <use xlink:href="#DejaVuSans-36" transform="translate(315.673828 0)"/>
      <use xlink:href="#DejaVuSans-20" transform="translate(379.296875 0)"/>
      <use xlink:href="#DejaVuSans-74" transform="translate(411.083984 0)"/>
      <use xlink:href="#DejaVuSans-65" transform="translate(450.292969 0)"/>
      <use xlink:href="#DejaVuSans-6d" transform="translate(511.816406 0)"/>
      <use xlink:href="#DejaVuSans-70" transform="translate(609.228516 0)"/>
      <use xlink:href="#DejaVuSans-6f" transform="translate(672.705078 0)"/>
      <use xlink:href="#DejaVuSans-72" transform="translate(733.886719 0)"/>
      <use xlink:href="#DejaVuSans-61" transform="translate(775 0)"/>
      <use xlink:href="#DejaVuSans-6c" transform="translate(836.279297 0)"/>
      <use xlink:href="#DejaVuSans-5f" transform="translate(864.0625 0)"/>
      <use xlink:href="#DejaVuSans-6d" transform="translate(914.0625 0)"/>
      <use xlink:href="#DejaVuSans-65" transform="translate(1011.474609 0)"/>
      <use xlink:href="#DejaVuSans-61" transform="translate(1072.998047 0)"/>
      <use xlink:href="#DejaVuSans-6e" transform="translate(1134.277344 0)"/>
     </g>
    </g>
   </g>
  </g>
  <g id="text_41">
   <!-- 30-epoch runs: convergence and overfitting check -->
   <g transform="translate(312.7525 16.318125) scale(0.12 -0.12)">
    <defs>
     <path id="DejaVuSans-2d" d="M 313 2009 
L 1997 2009 
L 1997 1497 
L 313 1497 
L 313 2009 
z
" transform="scale(0.015625)"/>
     <path id="DejaVuSans-75" d="M 544 1381 
L 544 3500 
L 1119 3500 
L 1119 1403 
Q 1119 906 1312 657 
Q 1506 409 1894 409 
Q 2359 409 2629 706 
Q 2900 1003 2900 1516 
L 2900 3500 
L 3475 3500 
L 3475 0 
L 2900 0 
L 2900 538 
Q 2691 219 2414 64 
Q 2138 -91 1772 -91 
Q 1169 -91 856 284 
Q 544 659 544 1381 
z
M 1991 3584 
L 1991 3584 
z
" transform="scale(0.015625)"/>
     <path id="DejaVuSans-3a" d="M 750 794 
L 1409 794 
L 1409 0 
L 750 0 
L 750 794 
z
M 750 3309 
L 1409 3309 
L 1409 2516 
L 750 2516 
L 750 3309 
z
" transform="scale(0.015625)"/>
     <path id="DejaVuSans-76" d="M 191 3500 
L 800 3500 
L 1894 563 
L 2988 3500 
L 3597 3500 
L 2284 0 
L 1503 0 
L 191 3500 
z
" transform="scale(0.015625)"/>
     <path id="DejaVuSans-67" d="M 2906 1791 
Q 2906 2416 2648 2759 
Q 2391 3103 1925 3103 
Q 1463 3103 1205 2759 
Q 947 2416 947 1791 
Q 947 1169 1205 825 
Q 1463 481 1925 481 
Q 2391 481 2648 825 
Q 2906 1169 2906 1791 
z
M 3481 434 
Q 3481 -459 3084 -895 
Q 2688 -1331 1869 -1331 
Q 1566 -1331 1297 -1286 
Q 1028 -1241 775 -1147 
L 775 -588 
Q 1028 -725 1275 -790 
Q 1522 -856 1778 -856 
Q 2344 -856 2625 -561 
Q 2906 -266 2906 331 
L 2906 616 
Q 2728 306 2450 153 
Q 2172 0 1784 0 
Q 1141 0 747 490 
Q 353 981 353 1791 
Q 353 2603 747 3093 
Q 1141 3584 1784 3584 
Q 2172 3584 2450 3431 
Q 2728 3278 2906 2969 
L 2906 3500 
L 3481 3500 
L 3481 434 
z
" transform="scale(0.015625)"/>
     <path id="DejaVuSans-66" d="M 2375 4863 
L 2375 4384 
L 1825 4384 
Q 1516 4384 1395 4259 
Q 1275 4134 1275 3809 
L 1275 3500 
L 2222 3500 
L 2222 3053 
L 1275 3053 
L 1275 0 
L 697 0 
L 697 3053 
L 147 3053 
L 147 3500 
L 697 3500 
L 697 3744 
Q 697 4328 969 4595 
Q 1241 4863 1831 4863 
L 2375 4863 
z
" transform="scale(0.015625)"/>
     <path id="DejaVuSans-6b" d="M 581 4863 
L 1159 4863 
L 1159 1991 
L 2875 3500 
L 3609 3500 
L 1753 1863 
L 3688 0 
L 2938 0 
L 1159 1709 
L 1159 0 
L 581 0 
L 581 4863 
z
" transform="scale(0.015625)"/>
    </defs>
    <use xlink:href="#DejaVuSans-33"/>
    <use xlink:href="#DejaVuSans-30" transform="translate(63.623047 0)"/>
    <use xlink:href="#DejaVuSans-2d" transform="translate(127.246094 0)"/>
    <use xlink:href="#DejaVuSans-65" transform="translate(163.330078 0)"/>
    <use xlink:href="#DejaVuSans-70" transform="translate(224.853516 0)"/>
    <use xlink:href="#DejaVuSans-6f" transform="translate(288.330078 0)"/>
    <use xlink:href="#DejaVuSans-63" transform="translate(349.511719 0)"/>
    <use xlink:href="#DejaVuSans-68" transform="translate(404.492188 0)"/>
    <use xlink:href="#DejaVuSans-20" transform="translate(467.871094 0)"/>
    <use xlink:href="#DejaVuSans-72" transform="translate(499.658203 0)"/>
    <use xlink:href="#DejaVuSans-75" transform="translate(540.771484 0)"/>
    <use xlink:href="#DejaVuSans-6e" transform="translate(604.150391 0)"/>
    <use xlink:href="#DejaVuSans-73" transform="translate(667.529297 0)"/>
    <use xlink:href="#DejaVuSans-3a" transform="translate(719.628906 0)"/>
    <use xlink:href="#DejaVuSans-20" transform="translate(753.320312 0)"/>
    <use xlink:href="#DejaVuSans-63" transform="translate(785.107422 0)"/>
    <use xlink:href="#DejaVuSans-6f" transform="translate(840.087891 0)"/>
    <use xlink:href="#DejaVuSans-6e" transform="translate(901.269531 0)"/>
    <use xlink:href="#DejaVuSans-76" transform="translate(964.648438 0)"/>
    <use xlink:href="#DejaVuSans-65" transform="translate(1023.828125 0)"/>
    <use xlink:href="#DejaVuSans-72" transform="translate(1085.351562 0)"/>
    <use xlink:href="#DejaVuSans-67" transform="translate(1124.714844 0)"/>
    <use xlink:href="#DejaVuSans-65" transform="translate(1188.191406 0)"/>
    <use xlink:href="#DejaVuSans-6e" transform="translate(1249.714844 0)"/>
    <use xlink:href="#DejaVuSans-63" transform="translate(1313.09375 0)"/>
    <use xlink:href="#DejaVuSans-65" transform="translate(1368.074219 0)"/>
    <use xlink:href="#DejaVuSans-20" transform="translate(1429.597656 0)"/>
    <use xlink:href="#DejaVuSans-61" transform="translate(1461.384766 0)"/>
    <use xlink:href="#DejaVuSans-6e" transform="translate(1522.664062 0)"/>
    <use xlink:href="#DejaVuSans-64" transform="translate(1586.042969 0)"/>
    <use xlink:href="#DejaVuSans-20" transform="translate(1649.519531 0)"/>
    <use xlink:href="#DejaVuSans-6f" transform="translate(1681.306641 0)"/>
    <use xlink:href="#DejaVuSans-76" transform="translate(1742.488281 0)"/>
    <use xlink:href="#DejaVuSans-65" transform="translate(1801.667969 0)"/>
    <use xlink:href="#DejaVuSans-72" transform="translate(1863.191406 0)"/>
    <use xlink:href="#DejaVuSans-66" transform="translate(1904.304688 0)"/>
    <use xlink:href="#DejaVuSans-69" transform="translate(1939.509766 0)"/>
    <use xlink:href="#DejaVuSans-74" transform="translate(1967.292969 0)"/>
    <use xlink:href="#DejaVuSans-74" transform="translate(2006.501953 0)"/>
    <use xlink:href="#DejaVuSans-69" transform="translate(2045.710938 0)"/>
    <use xlink:href="#DejaVuSans-6e" transform="translate(2073.494141 0)"/>
    <use xlink:href="#DejaVuSans-67" transform="translate(2136.873047 0)"/>
    <use xlink:href="#DejaVuSans-20" transform="translate(2200.349609 0)"/>
    <use xlink:href="#DejaVuSans-63" transform="translate(2232.136719 0)"/>
    <use xlink:href="#DejaVuSans-68" transform="translate(2287.117188 0)"/>
    <use xlink:href="#DejaVuSans-65" transform="translate(2350.496094 0)"/>
    <use xlink:href="#DejaVuSans-63" transform="translate(2412.019531 0)"/>
    <use xlink:href="#DejaVuSans-6b" transform="translate(2467 0)"/>
   </g>
  </g>
 </g>
 <defs>
  <clipPath id="p7f8be4b3b8">
   <rect x="62.86875" y="50.928" width="399.085" height="253"/>
  </clipPath>
  <clipPath id="p3dd8c5b5f5">
   <rect x="522.36375" y="50.928" width="399.085" height="253"/>
  </clipPath>
 </defs>
</svg>
